<svg width="640" height="480" viewBox="0 0 640 480" fill="none" xmlns="http://www.w3.org/2000/svg">
  <rect width="640" height="480" rx="36" fill="#FFF8F1"/>
  <ellipse cx="320" cy="350" rx="258" ry="76" fill="#DDE4F3"/>

  <path d="M112 343C154 315 229 299 320 299C411 299 486 315 528 343C492 364 416 382 320 382C224 382 148 364 112 343Z" fill="#C0281C"/>
  <path d="M146 343C186 321 247 309 320 309C393 309 454 321 494 343L456 381C417 389 372 393 320 393C268 393 223 389 184 381L146 343Z" fill="#D12E20"/>

  <path d="M175 246C175 170 239 109 320 109C401 109 465 170 465 246C465 295 402 335 320 335C238 335 175 295 175 246Z" fill="#F8C153"/>
  <path d="M195 248C195 182 249 129 320 129C391 129 445 182 445 248C445 290 389 321 320 321C251 321 195 290 195 248Z" fill="#FEE489"/>

  <path d="M179 244C179 208 196 177 223 153C249 130 283 118 320 118C357 118 391 130 417 153C444 177 461 208 461 244C461 214 402 190 320 190C238 190 179 214 179 244Z" fill="#C12619"/>
  <path d="M194 242C194 212 209 186 232 164C255 143 285 132 320 132C355 132 385 143 408 164C431 186 446 212 446 242C446 217 395 199 320 199C245 199 194 217 194 242Z" fill="#D23122"/>

  <ellipse cx="320" cy="214" rx="126" ry="31" fill="#BC2418"/>
  <ellipse cx="320" cy="210" rx="113" ry="24" fill="#C92B1D"/>
  <path d="M229 197C249 185 279 179 320 179C361 179 391 185 411 197C401 194 390 193 379 193H261C250 193 239 194 229 197Z" fill="#FFEFD3"/>

  <ellipse cx="320" cy="222" rx="104" ry="23" fill="#FCE28E"/>
  <path d="M231 223C249 213 278 208 320 208C362 208 391 213 409 223C400 219 390 217 381 217H259C250 217 240 219 231 223Z" fill="#FFF1B2"/>

  <ellipse cx="320" cy="244" rx="52" ry="16" fill="#7A2018"/>
  <ellipse cx="320" cy="240" rx="46" ry="11" fill="#5C1B14"/>

  <path d="M203 286C220 304 263 316 320 316C377 316 420 304 437 286C420 312 377 330 320 330C263 330 220 312 203 286Z" fill="#EFB648"/>
  <path d="M214 294C228 307 267 317 320 317C373 317 412 307 426 294C408 304 371 311 320 311C269 311 232 304 214 294Z" fill="#FFE39A"/>

  <path d="M155 241C165 196 190 162 228 138" stroke="#FFF2B9" stroke-width="12" stroke-linecap="round"/>
  <path d="M213 293C225 310 248 320 279 324" stroke="#FFD56A" stroke-width="14" stroke-linecap="round"/>
  <path d="M243 335C267 329 291 326 318 326" stroke="#FFE8C4" stroke-width="16" stroke-linecap="round"/>

  <path d="M411 137C431 149 446 168 456 193" stroke="#E99C76" stroke-width="14" stroke-linecap="round"/>
  <path d="M468 154C479 155 487 158 494 165" stroke="#E59C78" stroke-width="11" stroke-linecap="round"/>
  <path d="M462 219C467 230 469 240 469 252" stroke="#E79E79" stroke-width="10" stroke-linecap="round"/>

  <path d="M131 356C141 346 152 339 167 336C158 347 150 359 144 371L131 356Z" fill="#FFEED7"/>
  <path d="M391 367C404 362 418 360 435 360L420 383H381L391 367Z" fill="#FFF0DE"/>
</svg>
